<svg xmlns="http://www.w3.org/2000/svg" version="1.1" xmlns:xlink="http://www.w3.org/1999/xlink" xmlns:svgjs="http://svgjs.dev/svgjs" width="1500" height="1500" viewBox="0 0 1500 1500"><rect width="1500" height="1500" fill="#ffffff"></rect><g transform="matrix(0.6666666666666666,0,0,0.6666666666666666,249.39393939393938,465.67435124246003)"><svg viewBox="0 0 396 225" data-background-color="#ffffff" preserveAspectRatio="xMidYMid meet" height="852" width="1500" xmlns="http://www.w3.org/2000/svg" xmlns:xlink="http://www.w3.org/1999/xlink"><g id="tight-bounds" transform="matrix(1,0,0,1,0.2400000000000091,0.12899818740577018)"><svg viewBox="0 0 395.52 224.74200362518846" height="224.74200362518846" width="395.52"><g><svg viewBox="0 0 395.52 224.74200362518846" height="224.74200362518846" width="395.52"><g transform="matrix(1,0,0,1,0,138.8995744423884)"><svg viewBox="0 0 395.52 85.84242918280006" height="85.84242918280006" width="395.52"><g id="textblocktransform"><svg viewBox="0 0 395.52 85.84242918280006" height="85.84242918280006" width="395.52" id="textblock"><g><svg viewBox="0 0 395.52 85.84242918280006" height="85.84242918280006" width="395.52"><g transform="matrix(1,0,0,1,0,0)"><svg width="395.52" viewBox="1.75 -40.25 245.33 53.25" height="85.84242918280006" data-palette-color="#1f55b3"><path d="M11.05-14.35L11.05-8Q11.05-5.9 11.15-4.7 11.25-3.5 11.68-2.88 12.1-2.25 12.9-2.05 13.7-1.85 15.15-1.75L15.15-1.75 15.15 0 1.85 0 1.85-1.75Q3.3-1.85 4.15-2.05 5-2.25 5.45-2.85 5.9-3.45 6.03-4.58 6.15-5.7 6.15-7.6L6.15-7.6 6.15-14Q6.15-16.85 6.08-18.75 6-20.65 5.8-21.35L5.8-21.35Q5.65-22 5.45-22.38 5.25-22.75 4.8-22.98 4.35-23.2 3.63-23.28 2.9-23.35 1.75-23.35L1.75-23.35 1.75-25.1 9.9-27 10.55-22 10.8-22Q13.05-24.55 15.53-25.78 18-27 21-27L21-27Q24.15-27 26.3-25.73 28.45-24.45 29.3-22.05L29.3-22.05 29.5-22.05Q31.35-24.4 34-25.7 36.65-27 39.65-27L39.65-27Q42-27 43.93-26.23 45.85-25.45 46.85-24.1L46.85-24.1Q47.75-22.95 48.13-21.08 48.5-19.2 48.5-15.95L48.5-15.95 48.5-8Q48.5-5.95 48.63-4.75 48.75-3.55 49.15-2.9 49.55-2.25 50.38-2.05 51.2-1.85 52.65-1.75L52.65-1.75 52.65 0 39.35 0 39.35-1.75Q40.75-1.8 41.6-2.02 42.45-2.25 42.9-2.88 43.35-3.5 43.48-4.6 43.6-5.7 43.6-7.6L43.6-7.6 43.6-13.9Q43.6-16.75 43.3-18.73 43-20.7 42.3-21.93 41.6-23.15 40.48-23.7 39.35-24.25 37.75-24.25L37.75-24.25Q35.55-24.25 33.63-23.03 31.7-21.8 30.6-19.75L30.6-19.75Q30.35-19.25 30.18-18.78 30-18.3 29.9-17.73 29.8-17.15 29.78-16.35 29.75-15.55 29.75-14.35L29.75-14.35 29.75-8Q29.75-5.95 29.85-4.75 29.95-3.55 30.38-2.9 30.8-2.25 31.65-2.05 32.5-1.85 33.95-1.75L33.95-1.75 33.95 0 20.65 0 20.65-1.75Q22.05-1.85 22.9-2.05 23.75-2.25 24.18-2.85 24.6-3.45 24.73-4.58 24.85-5.7 24.85-7.6L24.85-7.6 24.85-13.9Q24.85-16.8 24.55-18.78 24.25-20.75 23.58-21.98 22.9-23.2 21.8-23.73 20.7-24.25 19.1-24.25L19.1-24.25Q16.85-24.25 14.88-23.03 12.9-21.8 11.9-19.75L11.9-19.75Q11.65-19.25 11.48-18.78 11.3-18.3 11.2-17.73 11.1-17.15 11.08-16.35 11.05-15.55 11.05-14.35L11.05-14.35ZM65.05-27L65.05-7.95Q65.05-6 65.22-4.83 65.4-3.65 65.9-2.98 66.4-2.3 67.3-2.05 68.2-1.8 69.7-1.75L69.7-1.75 69.7 0 55.35 0 55.35-1.75Q56.85-1.8 57.8-2.08 58.75-2.35 59.27-2.98 59.8-3.6 59.97-4.73 60.15-5.85 60.15-7.6L60.15-7.6 60.15-14Q60.15-16.9 60.07-18.78 60-20.65 59.8-21.35L59.8-21.35Q59.55-22.5 58.65-22.93 57.75-23.35 55.25-23.35L55.25-23.35 55.25-25.1 65.05-27ZM59.3-37.15L59.3-37.15Q59.3-38.45 60.2-39.35 61.1-40.25 62.4-40.25L62.4-40.25Q63.7-40.25 64.6-39.35 65.5-38.45 65.5-37.15L65.5-37.15Q65.5-35.85 64.6-34.95 63.7-34.05 62.4-34.05L62.4-34.05Q61.1-34.05 60.2-34.95 59.3-35.85 59.3-37.15ZM81.8-9.65L81.8-7.95Q81.8-5.9 81.9-4.7 82-3.5 82.42-2.88 82.85-2.25 83.65-2.05 84.45-1.85 85.9-1.75L85.9-1.75 85.9 0 72.6 0 72.6-1.75Q74.05-1.8 74.9-2.02 75.75-2.25 76.2-2.85 76.65-3.45 76.77-4.58 76.9-5.7 76.9-7.6L76.9-7.6 76.9-13.45Q76.9-16.85 76.82-18.75 76.75-20.65 76.32-21.55 75.9-22.45 75-22.63 74.1-22.8 72.5-22.8L72.5-22.8 72.5-24.55 81.25-26.45 81.95-20.25 82.15-20.25Q82.8-21.75 83.77-23 84.75-24.25 85.9-25.13 87.05-26 88.3-26.5 89.55-27 90.85-27L90.85-27Q92.45-27 93.37-26.23 94.3-25.45 94.3-24.15L94.3-24.15Q94.3-22.95 93.55-22.28 92.8-21.6 91.4-21.6L91.4-21.6Q90.6-21.6 90.05-21.8 89.5-22 89.07-22.23 88.65-22.45 88.27-22.65 87.9-22.85 87.45-22.85L87.45-22.85Q86.1-22.85 84.75-21.13 83.4-19.4 82.65-16.75L82.65-16.75Q82.25-15.3 82.02-13.48 81.8-11.65 81.8-9.65L81.8-9.65ZM120.29-7.75L119.44 0 95.44 0 95.44-0.2 112.74-24.4 107.19-24.4Q105.04-24.4 103.67-24.23 102.29-24.05 101.42-23.53 100.54-23 100.09-22.08 99.64-21.15 99.39-19.6L99.39-19.6 97.79-19.6 98.59-26.5 120.09-26.5 120.09-26.3 103.04-2.3 108.89-2.3Q111.44-2.3 113.12-2.5 114.79-2.7 115.87-3.3 116.94-3.9 117.57-4.95 118.19-6 118.64-7.75L118.64-7.75 120.29-7.75ZM138.64-27L138.64-27Q141.49-27 144.04-25.98 146.59-24.95 148.52-23.15 150.44-21.35 151.57-18.88 152.69-16.4 152.69-13.45L152.69-13.45Q152.69-10.4 151.57-7.85 150.44-5.3 148.52-3.45 146.59-1.6 144.04-0.55 141.49 0.5 138.64 0.5L138.64 0.5Q135.84 0.5 133.32-0.53 130.79-1.55 128.89-3.4 126.99-5.25 125.89-7.83 124.79-10.4 124.79-13.45L124.79-13.45Q124.79-16.4 125.89-18.9 126.99-21.4 128.89-23.2 130.79-25 133.32-26 135.84-27 138.64-27ZM138.64-24.6L138.64-24.6Q136.79-24.6 135.27-23.8 133.74-23 132.67-21.53 131.59-20.05 131.02-17.98 130.44-15.9 130.44-13.4L130.44-13.4Q130.44-10.8 131.02-8.7 131.59-6.6 132.67-5.13 133.74-3.65 135.24-2.85 136.74-2.05 138.64-2.05L138.64-2.05Q140.54-2.05 142.09-2.85 143.64-3.65 144.74-5.15 145.84-6.65 146.44-8.75 147.04-10.85 147.04-13.4L147.04-13.4Q147.04-15.9 146.44-17.95 145.84-20 144.74-21.48 143.64-22.95 142.09-23.78 140.54-24.6 138.64-24.6ZM165.59-26.8L165.59-22.9 165.79-22.9Q167.39-24.8 169.24-25.9 171.09-27 173.54-27L173.54-27Q176.39-27 178.76-25.98 181.14-24.95 182.89-23.1 184.64-21.25 185.61-18.73 186.59-16.2 186.59-13.2L186.59-13.2Q186.59-10.15 185.59-7.63 184.59-5.1 182.84-3.3 181.09-1.5 178.69-0.5 176.29 0.5 173.49 0.5L173.49 0.5Q171.19 0.5 169.31-0.28 167.44-1.05 165.79-2.8L165.79-2.8 165.79 4.5Q165.79 6.5 165.99 7.7 166.19 8.9 166.79 9.55 167.39 10.2 168.51 10.45 169.64 10.7 171.49 10.75L171.49 10.75 171.49 12.5 156.09 12.5 156.09 10.75Q157.59 10.7 158.51 10.45 159.44 10.2 159.96 9.55 160.49 8.9 160.69 7.78 160.89 6.65 160.89 4.85L160.89 4.85 160.89-13.85Q160.89-16.75 160.81-18.6 160.74-20.45 160.54-21.15L160.54-21.15Q160.29-22.35 159.39-22.78 158.49-23.2 155.99-23.2L155.99-23.2 155.99-24.9 165.59-26.8ZM167.09-21.45L167.09-21.45Q166.44-20.45 166.11-19.07 165.79-17.7 165.79-15.5L165.79-15.5 165.79-11.6Q165.79-10.25 165.86-9.28 165.94-8.3 166.09-7.6 166.24-6.9 166.49-6.35 166.74-5.8 167.14-5.3L167.14-5.3Q168.29-3.7 169.89-2.83 171.49-1.95 173.24-1.95L173.24-1.95Q176.69-1.95 178.81-4.85 180.94-7.75 180.94-13L180.94-13Q180.94-15.6 180.36-17.73 179.79-19.85 178.74-21.38 177.69-22.9 176.21-23.75 174.74-24.6 172.94-24.6L172.94-24.6Q171.14-24.6 169.61-23.78 168.09-22.95 167.09-21.45ZM206.49-10.85L206.49-14.8Q203.64-13.7 201.66-12.65 199.69-11.6 198.49-10.55 197.29-9.5 196.76-8.45 196.24-7.4 196.24-6.3L196.24-6.3Q196.24-4.65 197.34-3.6 198.44-2.55 200.24-2.55L200.24-2.55Q201.54-2.55 202.66-3.2 203.79-3.85 204.64-4.98 205.49-6.1 205.99-7.63 206.49-9.15 206.49-10.85L206.49-10.85ZM199.29-13.8L206.49-16.95 206.49-19Q206.49-25.1 201.29-25.1L201.29-25.1Q200.44-25.1 199.84-24.95 199.24-24.8 198.84-24.45 198.44-24.1 198.11-23.45 197.79-22.8 197.49-21.85L197.49-21.85Q196.94-20.4 196.41-19.93 195.89-19.45 194.89-19.45L194.89-19.45Q192.39-19.45 192.39-21.95L192.39-21.95Q192.39-24.35 194.94-25.68 197.49-27 202.19-27L202.19-27Q207.19-27 209.29-25.23 211.39-23.45 211.39-19.2L211.39-19.2 211.39-8Q211.39-2.3 213.64-2.3L213.64-2.3Q214.34-2.3 214.99-2.48 215.64-2.65 216.09-3.4L216.09-3.4 216.79-2.2Q216.19-1.05 214.59-0.28 212.99 0.5 211.24 0.5L211.24 0.5Q209.04 0.5 207.96-0.9 206.89-2.3 206.89-4.85L206.89-4.85 206.64-4.85Q205.34-2.4 203.04-0.98 200.74 0.45 197.94 0.45L197.94 0.45Q194.79 0.45 192.99-1.15 191.19-2.75 191.19-5.45L191.19-5.45Q191.19-6.65 191.61-7.75 192.04-8.85 192.99-9.85 193.94-10.85 195.49-11.83 197.04-12.8 199.29-13.8L199.29-13.8ZM240.63-16.4L229.73 7.85Q227.43 13 222.58 13L222.58 13Q219.43 13 219.43 10.65L219.43 10.65Q219.43 9.4 220.31 8.83 221.18 8.25 223.53 7.85L223.53 7.85Q224.58 7.7 225.33 7.43 226.08 7.15 226.68 6.73 227.28 6.3 227.76 5.65 228.23 5 228.68 4.05L228.68 4.05 230.43 0.55 220.83-20.3Q220.18-21.7 219.71-22.53 219.23-23.35 218.71-23.83 218.18-24.3 217.53-24.48 216.88-24.65 215.88-24.75L215.88-24.75 215.88-26.5 229.13-26.5 229.13-24.75Q225.78-24.75 225.78-23.1L225.78-23.1Q225.78-22.45 226.18-21.05 226.58-19.65 227.18-18.2L227.18-18.2 232.68-4.9 232.93-4.9 237.48-16.15Q238.13-17.8 238.56-18.85 238.98-19.9 239.21-20.58 239.43-21.25 239.51-21.7 239.58-22.15 239.58-22.55L239.58-22.55Q239.58-23.85 238.86-24.3 238.13-24.75 236.08-24.75L236.08-24.75 236.08-26.5 247.08-26.5 247.08-24.75Q246.13-24.75 245.48-24.5 244.83-24.25 244.16-23.38 243.48-22.5 242.66-20.85 241.83-19.2 240.63-16.4L240.63-16.4Z" opacity="1" transform="matrix(1,0,0,1,0,0)" fill="#000000" class="wordmark-text-0" data-fill-palette-color="primary" id="text-0"></path></svg></g></svg></g></svg></g></svg></g><g transform="matrix(1,0,0,1,138.44288143468515,0)"><svg viewBox="0 0 118.63423713062969 118.6342371306297" height="118.6342371306297" width="118.63423713062969"><g><svg></svg></g><g id="icon-0"><svg viewBox="0 0 118.63423713062969 118.6342371306297" height="118.6342371306297" width="118.63423713062969"><g><path transform="scale(1.18634,1.18634)" d="M30 100c-16.569 0-30-13.431-30-30v-40c0-16.569 13.431-30 30-30h40c16.569 0 30 13.431 30 30v40c0 16.569-13.431 30-30 30z" fill="#000000" fill-rule="nonzero" stroke="none" stroke-width="1" stroke-linecap="butt" stroke-linejoin="miter" stroke-miterlimit="10" stroke-dasharray="" stroke-dashoffset="0" font-family="none" font-weight="none" font-size="none" text-anchor="none" style="mix-blend-mode: normal" data-fill-palette-color="accent"></path></g><g transform="matrix(1,0,0,1,23.726847426125936,30.6930300216952)"><svg viewBox="0 0 71.18054227837781 57.2481770872393" height="57.2481770872393" width="71.18054227837781"><g><svg xmlns="http://www.w3.org/2000/svg" xmlns:xlink="http://www.w3.org/1999/xlink" version="1.1" x="0" y="0" viewBox="0 9.786 100.00034525290005 80.42699999999999" enable-background="new 0 0 100 100" xml:space="preserve" id="dxe-0" width="71.18054227837781" height="57.2481770872393" class="icon-dxe-0" data-fill-palette-color="quaternary"><path d="M49.942 52.994L90.595 51.529C88.068 47.352 87.436 43.698 82.606 43.068 75.377 42.128 68.148 41.185 60.918 40.242L18.843 34.762C20.101 36.792 39.724 53.361 49.942 52.994" fill="#ffffff" data-fill-palette-color="quaternary"></path><path d="M0 9.786C4.391 17.043 26.615 32.858 32.953 33.672 50.283 35.903 67.61 38.132 84.939 40.36 81.546 34.753 80.759 31.01 74.627 29.401L47.91 22.378C31.94 18.182 15.97 13.984 0 9.786" fill="#ffffff" data-fill-palette-color="quaternary"></path><path d="M63.108 66.207L94.349 59.547C92.321 56.201 92.315 54.188 88.522 54.358 82.364 54.631 76.208 54.907 70.051 55.18 58.708 55.686 47.365 56.194 36.023 56.698 37.298 58.064 54.94 67.947 63.108 66.207" fill="#ffffff" data-fill-palette-color="quaternary"></path><path d="M87.682 90.213C93.407 86.494 94.944 82.492 98.201 76.406 101.852 69.582 99.458 68.562 95.38 61.81 94.963 61.122 89.538 62.042 88.927 62.714 88.182 63.532 88.679 68.169 88.633 69.21z" fill="#ffffff" data-fill-palette-color="quaternary"></path><path d="M86.35 63.447C82.555 64.256 77.746 63.638 76.778 67.676L72.658 84.887C81.904 82.678 86.028 71.582 86.35 63.447" fill="#ffffff" data-fill-palette-color="quaternary"></path><path d="M74.666 66.121C65.518 68.074 65.71 70.732 61.787 79.301 68.007 78.711 73.811 71.941 74.666 66.121" fill="#ffffff" data-fill-palette-color="quaternary"></path></svg></g></svg></g></svg></g></svg></g><g></g></svg></g><defs></defs></svg><rect width="395.52" height="224.74200362518846" fill="none" stroke="none" visibility="hidden"></rect></g></svg></g></svg>